<svg id="visual" viewBox="0 0 900 600" width="900" height="600" xmlns="http://www.w3.org/2000/svg" xmlns:xlink="http://www.w3.org/1999/xlink" version="1.1"><rect width="900" height="600" fill="#6600FF"></rect><g><g transform="translate(113 89)"><path d="M66.4 -66.6C84.2 -48.7 95.2 -24.4 98.5 3.3C101.7 30.9 97.2 61.7 79.5 80C61.7 98.3 30.9 103.9 0.4 103.5C-30.1 103.1 -60.2 96.7 -78.8 78.4C-97.5 60.2 -104.7 30.1 -106.1 -1.3C-107.4 -32.7 -102.8 -65.5 -84.2 -83.4C-65.5 -101.3 -32.7 -104.4 -4.2 -100.2C24.4 -96 48.7 -84.5 66.4 -66.6Z" fill="#715DF2"></path></g><g transform="translate(550 293)"><path d="M45 -42.6C56.3 -33.7 62.1 -16.8 63.4 1.2C64.6 19.3 61.2 38.6 49.9 49.3C38.6 60 19.3 62 2.8 59.2C-13.7 56.5 -27.5 48.9 -40.4 38.2C-53.3 27.5 -65.3 13.7 -67.7 -2.5C-70.2 -18.7 -63.1 -37.4 -50.2 -46.3C-37.4 -55.2 -18.7 -54.3 -0.9 -53.4C16.8 -52.4 33.7 -51.5 45 -42.6Z" fill="#715DF2"></path></g><g transform="translate(258 384)"><path d="M47.6 -47.4C58.9 -36.2 63.5 -18.1 65 1.6C66.6 21.3 65.3 42.6 53.9 53.3C42.6 64.1 21.3 64.2 3.3 61C-14.8 57.7 -29.6 51 -43.9 40.3C-58.1 29.6 -71.9 14.8 -72.3 -0.4C-72.7 -15.5 -59.6 -31 -45.3 -42.2C-31 -53.4 -15.5 -60.3 1.3 -61.6C18.1 -62.9 36.2 -58.6 47.6 -47.4Z" fill="#715DF2"></path></g><g transform="translate(888 578)"><path d="M48.1 -43.8C62.9 -33.3 75.8 -16.7 75.1 -0.7C74.4 15.3 60.1 30.5 45.3 42.2C30.5 53.9 15.3 62 -2 64C-19.3 66 -38.5 61.9 -54.3 50.2C-70 38.5 -82.3 19.3 -83.8 -1.5C-85.3 -22.2 -76 -44.5 -60.2 -54.9C-44.5 -65.3 -22.2 -63.9 -2.8 -61.1C16.7 -58.4 33.3 -54.2 48.1 -43.8Z" fill="#715DF2"></path></g></g></svg>