<svg id="visual" viewBox="0 0 900 600" width="900" height="600" xmlns="http://www.w3.org/2000/svg" xmlns:xlink="http://www.w3.org/1999/xlink" version="1.1"><rect width="900" height="600" fill="#6600FF"></rect><g><g transform="translate(141 153)"><path d="M80.8 -83.8C96.3 -65.3 94.6 -32.6 93.7 -1C92.7 30.7 92.4 61.4 76.9 82.8C61.4 104.2 30.7 116.3 -1.8 118.2C-34.3 120 -68.7 111.5 -90.4 90.1C-112.2 68.7 -121.3 34.3 -117.6 3.7C-113.9 -26.9 -97.4 -53.9 -75.6 -72.4C-53.9 -91 -26.9 -101.1 2.8 -104C32.6 -106.8 65.3 -102.3 80.8 -83.8Z" fill="#715DF2"></path></g><g transform="translate(804 25)"><path d="M36 -38C46.2 -25.9 53.7 -12.9 55.7 2.1C57.8 17.1 54.5 34.1 44.3 45.1C34.1 56 17.1 60.8 1.2 59.6C-14.6 58.4 -29.2 51.1 -41.5 40.2C-53.7 29.2 -63.5 14.6 -63.2 0.4C-62.8 -13.8 -52.2 -27.7 -39.9 -39.8C-27.7 -51.9 -13.8 -62.3 -0.5 -61.9C12.9 -61.4 25.9 -50.1 36 -38Z" fill="#715DF2"></path></g><g transform="translate(809 498)"><path d="M39.5 -36C51.6 -27.3 62.3 -13.6 64.6 2.2C66.8 18.1 60.5 36.1 48.3 48.9C36.1 61.7 18.1 69.3 0.8 68.4C-16.4 67.6 -32.8 58.4 -41.6 45.6C-50.4 32.8 -51.5 16.4 -49.3 2.3C-47 -11.8 -41.3 -23.7 -32.5 -32.4C-23.7 -41.1 -11.8 -46.8 0.9 -47.6C13.6 -48.5 27.3 -44.7 39.5 -36Z" fill="#715DF2"></path></g><g transform="translate(425 449)"><path d="M32 -31.1C41.5 -22.5 49.3 -11.2 51.1 1.8C52.9 14.9 48.7 29.7 39.2 40C29.7 50.3 14.9 56 -0.6 56.6C-16.1 57.2 -32.1 52.7 -41.1 42.4C-50.1 32.1 -52 16.1 -51.1 0.8C-50.3 -14.4 -46.8 -28.9 -37.8 -37.5C-28.9 -46.1 -14.4 -48.8 -1.6 -47.2C11.2 -45.6 22.5 -39.7 32 -31.1Z" fill="#715DF2"></path></g></g></svg>