<svg id="visual" viewBox="0 0 900 600" width="900" height="600" xmlns="http://www.w3.org/2000/svg" xmlns:xlink="http://www.w3.org/1999/xlink" version="1.1"><rect x="0" y="0" width="900" height="600" fill="#001220"></rect><defs><linearGradient id="grad1_0" x1="33.3%" y1="0%" x2="100%" y2="100%"><stop offset="20%" stop-color="#001220" stop-opacity="1"></stop><stop offset="80%" stop-color="#001220" stop-opacity="1"></stop></linearGradient></defs><defs><linearGradient id="grad2_0" x1="0%" y1="0%" x2="66.7%" y2="100%"><stop offset="20%" stop-color="#001220" stop-opacity="1"></stop><stop offset="80%" stop-color="#001220" stop-opacity="1"></stop></linearGradient></defs><g transform="translate(900, 0)"><path d="M0 378.6C-45.2 333 -90.5 287.4 -151 261.5C-211.5 235.7 -287.4 229.6 -327.9 189.3C-368.3 149 -373.5 74.5 -378.6 0L0 0Z" fill="#715DF2"></path></g><g transform="translate(0, 600)"><path d="M0 -378.6C64.4 -366.2 128.9 -353.9 187 -323.9C245.1 -293.9 297 -246.2 327.9 -189.3C358.7 -132.4 368.7 -66.2 378.6 0L0 0Z" fill="#715DF2"></path></g></svg>