<svg id="visual" viewBox="0 0 900 600" width="900" height="600" xmlns="http://www.w3.org/2000/svg" xmlns:xlink="http://www.w3.org/1999/xlink" version="1.1"><g stroke-width="1" stroke-linejoin="bevel"><path d="M417 302.9L427 239.1L349 282.1Z" fill="#450cbb" stroke="#450cbb"></path><path d="M427 239.1L354 191.4L349 282.1Z" fill="#3f0cae" stroke="#3f0cae"></path><path d="M427 239.1L423 163.4L354 191.4Z" fill="#340c94" stroke="#340c94"></path><path d="M349 282.1L391 374.9L417 302.9Z" fill="#5f04f1" stroke="#5f04f1"></path><path d="M563 327.9L530 216.1L417 302.9Z" fill="#450cbb" stroke="#450cbb"></path><path d="M417 302.9L530 216.1L427 239.1Z" fill="#6600ff" stroke="#6600ff"></path><path d="M427 239.1L530 216.1L423 163.4Z" fill="#340c94" stroke="#340c94"></path><path d="M218 255.1L245 295.1L349 282.1Z" fill="#2a0b7b" stroke="#2a0b7b"></path><path d="M349 282.1L266 360.9L391 374.9Z" fill="#5f04f1" stroke="#5f04f1"></path><path d="M379 88.7L291 150.4L354 191.4Z" fill="#5807e3" stroke="#5807e3"></path><path d="M354 191.4L218 255.1L349 282.1Z" fill="#4b0bc8" stroke="#4b0bc8"></path><path d="M245 295.1L266 360.9L349 282.1Z" fill="#3a0ca1" stroke="#3a0ca1"></path><path d="M563 327.9L554 209.4L530 216.1Z" fill="#4b0bc8" stroke="#4b0bc8"></path><path d="M531 100.7L435 70.7L423 163.4Z" fill="#2a0b7b" stroke="#2a0b7b"></path><path d="M291 150.4L218 255.1L354 191.4Z" fill="#2f0c87" stroke="#2f0c87"></path><path d="M245 295.1L177 320.9L266 360.9Z" fill="#5209d6" stroke="#5209d6"></path><path d="M435 70.7L379 88.7L423 163.4Z" fill="#5209d6" stroke="#5209d6"></path><path d="M423 163.4L379 88.7L354 191.4Z" fill="#3a0ca1" stroke="#3a0ca1"></path><path d="M463 446.6L563 327.9L417 302.9Z" fill="#3f0cae" stroke="#3f0cae"></path><path d="M266 360.9L397 458.6L391 374.9Z" fill="#3a0ca1" stroke="#3a0ca1"></path><path d="M391 374.9L463 446.6L417 302.9Z" fill="#450cbb" stroke="#450cbb"></path><path d="M397 458.6L463 446.6L391 374.9Z" fill="#340c94" stroke="#340c94"></path><path d="M531 100.7L423 163.4L530 216.1Z" fill="#5807e3" stroke="#5807e3"></path><path d="M554 209.4L531 100.7L530 216.1Z" fill="#5209d6" stroke="#5209d6"></path><path d="M218 255.1L177 320.9L245 295.1Z" fill="#3f0cae" stroke="#3f0cae"></path><path d="M266 360.9L243 456.6L397 458.6Z" fill="#5807e3" stroke="#5807e3"></path><path d="M379 88.7L254 91.7L291 150.4Z" fill="#340c94" stroke="#340c94"></path><path d="M291 150.4L194 156.4L218 255.1Z" fill="#5209d6" stroke="#5209d6"></path><path d="M218 255.1L105 270.1L177 320.9Z" fill="#5f04f1" stroke="#5f04f1"></path><path d="M337 0L254 91.7L379 88.7Z" fill="#2a0b7b" stroke="#2a0b7b"></path><path d="M254 91.7L194 156.4L291 150.4Z" fill="#5209d6" stroke="#5209d6"></path><path d="M640 249.1L597 150.4L554 209.4Z" fill="#6600ff" stroke="#6600ff"></path><path d="M554 209.4L597 150.4L531 100.7Z" fill="#5807e3" stroke="#5807e3"></path><path d="M187 450.6L243 456.6L266 360.9Z" fill="#4b0bc8" stroke="#4b0bc8"></path><path d="M322 553.3L445 502.3L397 458.6Z" fill="#3a0ca1" stroke="#3a0ca1"></path><path d="M397 458.6L445 502.3L463 446.6Z" fill="#5807e3" stroke="#5807e3"></path><path d="M463 446.6L559 460.6L563 327.9Z" fill="#3f0cae" stroke="#3f0cae"></path><path d="M563 327.9L640 249.1L554 209.4Z" fill="#340c94" stroke="#340c94"></path><path d="M651 363.9L640 249.1L563 327.9Z" fill="#5f04f1" stroke="#5f04f1"></path><path d="M516 551.3L559 460.6L463 446.6Z" fill="#5209d6" stroke="#5209d6"></path><path d="M597 150.4L603 113.7L531 100.7Z" fill="#3a0ca1" stroke="#3a0ca1"></path><path d="M528 0L445 0L435 70.7Z" fill="#5807e3" stroke="#5807e3"></path><path d="M706 100.7L603 113.7L597 150.4Z" fill="#5209d6" stroke="#5209d6"></path><path d="M528 0L435 70.7L531 100.7Z" fill="#3a0ca1" stroke="#3a0ca1"></path><path d="M435 70.7L337 0L379 88.7Z" fill="#5209d6" stroke="#5209d6"></path><path d="M445 0L337 0L435 70.7Z" fill="#450cbb" stroke="#450cbb"></path><path d="M254 91.7L164 55.7L194 156.4Z" fill="#2f0c87" stroke="#2f0c87"></path><path d="M177 320.9L187 450.6L266 360.9Z" fill="#6600ff" stroke="#6600ff"></path><path d="M243 456.6L322 553.3L397 458.6Z" fill="#2a0b7b" stroke="#2a0b7b"></path><path d="M559 460.6L651 363.9L563 327.9Z" fill="#3a0ca1" stroke="#3a0ca1"></path><path d="M194 156.4L105 270.1L218 255.1Z" fill="#5f04f1" stroke="#5f04f1"></path><path d="M177 320.9L101 425.6L187 450.6Z" fill="#5807e3" stroke="#5807e3"></path><path d="M337 0L284 0L254 91.7Z" fill="#2a0b7b" stroke="#2a0b7b"></path><path d="M194 156.4L90 179.4L105 270.1Z" fill="#2a0b7b" stroke="#2a0b7b"></path><path d="M264 537.3L322 553.3L243 456.6Z" fill="#2f0c87" stroke="#2f0c87"></path><path d="M445 502.3L516 551.3L463 446.6Z" fill="#5f04f1" stroke="#5f04f1"></path><path d="M603 113.7L528 0L531 100.7Z" fill="#3f0cae" stroke="#3f0cae"></path><path d="M150 497.3L264 537.3L243 456.6Z" fill="#2a0b7b" stroke="#2a0b7b"></path><path d="M210 0L164 55.7L254 91.7Z" fill="#2f0c87" stroke="#2f0c87"></path><path d="M660 423.6L688 353.9L651 363.9Z" fill="#6600ff" stroke="#6600ff"></path><path d="M651 363.9L688 353.9L640 249.1Z" fill="#2f0c87" stroke="#2f0c87"></path><path d="M640 249.1L712 202.4L597 150.4Z" fill="#2a0b7b" stroke="#2a0b7b"></path><path d="M412 600L516 551.3L445 502.3Z" fill="#340c94" stroke="#340c94"></path><path d="M559 460.6L660 423.6L651 363.9Z" fill="#3f0cae" stroke="#3f0cae"></path><path d="M614 515.3L660 423.6L559 460.6Z" fill="#450cbb" stroke="#450cbb"></path><path d="M119 53.7L90 179.4L194 156.4Z" fill="#2a0b7b" stroke="#2a0b7b"></path><path d="M284 0L210 0L254 91.7Z" fill="#6600ff" stroke="#6600ff"></path><path d="M752 257.1L712 202.4L640 249.1Z" fill="#5209d6" stroke="#5209d6"></path><path d="M603 113.7L668 0L528 0Z" fill="#4b0bc8" stroke="#4b0bc8"></path><path d="M50 358.9L177 320.9L105 270.1Z" fill="#6600ff" stroke="#6600ff"></path><path d="M50 358.9L101 425.6L177 320.9Z" fill="#3f0cae" stroke="#3f0cae"></path><path d="M187 450.6L150 497.3L243 456.6Z" fill="#5f04f1" stroke="#5f04f1"></path><path d="M101 425.6L150 497.3L187 450.6Z" fill="#2a0b7b" stroke="#2a0b7b"></path><path d="M516 551.3L614 515.3L559 460.6Z" fill="#3a0ca1" stroke="#3a0ca1"></path><path d="M352 600L412 600L322 553.3Z" fill="#3f0cae" stroke="#3f0cae"></path><path d="M322 553.3L412 600L445 502.3Z" fill="#450cbb" stroke="#450cbb"></path><path d="M516 551.3L609 600L614 515.3Z" fill="#6600ff" stroke="#6600ff"></path><path d="M352 600L322 553.3L284 600Z" fill="#6600ff" stroke="#6600ff"></path><path d="M284 600L322 553.3L264 537.3Z" fill="#5807e3" stroke="#5807e3"></path><path d="M114 0L119 53.7L164 55.7Z" fill="#3f0cae" stroke="#3f0cae"></path><path d="M164 55.7L119 53.7L194 156.4Z" fill="#5f04f1" stroke="#5f04f1"></path><path d="M146 600L284 600L264 537.3Z" fill="#5807e3" stroke="#5807e3"></path><path d="M0 267.1L50 358.9L105 270.1Z" fill="#3a0ca1" stroke="#3a0ca1"></path><path d="M101 425.6L55 488.3L150 497.3Z" fill="#2a0b7b" stroke="#2a0b7b"></path><path d="M712 202.4L706 100.7L597 150.4Z" fill="#4b0bc8" stroke="#4b0bc8"></path><path d="M412 600L523 600L516 551.3Z" fill="#450cbb" stroke="#450cbb"></path><path d="M688 353.9L752 257.1L640 249.1Z" fill="#450cbb" stroke="#450cbb"></path><path d="M712 202.4L782 141.4L706 100.7Z" fill="#5807e3" stroke="#5807e3"></path><path d="M779 337.9L752 257.1L688 353.9Z" fill="#6600ff" stroke="#6600ff"></path><path d="M742 415.6L688 353.9L660 423.6Z" fill="#340c94" stroke="#340c94"></path><path d="M747 549.3L660 423.6L614 515.3Z" fill="#340c94" stroke="#340c94"></path><path d="M747 549.3L742 415.6L660 423.6Z" fill="#2f0c87" stroke="#2f0c87"></path><path d="M706 100.7L668 0L603 113.7Z" fill="#3a0ca1" stroke="#3a0ca1"></path><path d="M210 0L114 0L164 55.7Z" fill="#2a0b7b" stroke="#2a0b7b"></path><path d="M0 148.4L0 267.1L90 179.4Z" fill="#450cbb" stroke="#450cbb"></path><path d="M90 179.4L0 267.1L105 270.1Z" fill="#2a0b7b" stroke="#2a0b7b"></path><path d="M0 148.4L90 179.4L0 76.7Z" fill="#340c94" stroke="#340c94"></path><path d="M742 415.6L779 337.9L688 353.9Z" fill="#5209d6" stroke="#5209d6"></path><path d="M798 80.7L695 0L706 100.7Z" fill="#6600ff" stroke="#6600ff"></path><path d="M523 600L609 600L516 551.3Z" fill="#3f0cae" stroke="#3f0cae"></path><path d="M0 419.6L101 425.6L50 358.9Z" fill="#340c94" stroke="#340c94"></path><path d="M0 419.6L55 488.3L101 425.6Z" fill="#4b0bc8" stroke="#4b0bc8"></path><path d="M150 497.3L146 600L264 537.3Z" fill="#5209d6" stroke="#5209d6"></path><path d="M706 100.7L695 0L668 0Z" fill="#3a0ca1" stroke="#3a0ca1"></path><path d="M782 141.4L712 202.4L752 257.1Z" fill="#5807e3" stroke="#5807e3"></path><path d="M0 267.1L0 368.9L50 358.9Z" fill="#2f0c87" stroke="#2f0c87"></path><path d="M0 76.7L90 179.4L119 53.7Z" fill="#5f04f1" stroke="#5f04f1"></path><path d="M805 252.1L782 141.4L752 257.1Z" fill="#340c94" stroke="#340c94"></path><path d="M100 600L146 600L150 497.3Z" fill="#5f04f1" stroke="#5f04f1"></path><path d="M779 337.9L805 252.1L752 257.1Z" fill="#4b0bc8" stroke="#4b0bc8"></path><path d="M0 368.9L0 419.6L50 358.9Z" fill="#5f04f1" stroke="#5f04f1"></path><path d="M0 0L0 76.7L119 53.7Z" fill="#2f0c87" stroke="#2f0c87"></path><path d="M55 488.3L100 600L150 497.3Z" fill="#5807e3" stroke="#5807e3"></path><path d="M0 549.3L100 600L55 488.3Z" fill="#6600ff" stroke="#6600ff"></path><path d="M900 133.4L798 80.7L782 141.4Z" fill="#450cbb" stroke="#450cbb"></path><path d="M782 141.4L798 80.7L706 100.7Z" fill="#450cbb" stroke="#450cbb"></path><path d="M742 415.6L814 418.6L779 337.9Z" fill="#2f0c87" stroke="#2f0c87"></path><path d="M900 372.9L900 231.1L805 252.1Z" fill="#2f0c87" stroke="#2f0c87"></path><path d="M900 80.7L805 0L798 80.7Z" fill="#2f0c87" stroke="#2f0c87"></path><path d="M832 482.3L814 418.6L742 415.6Z" fill="#3a0ca1" stroke="#3a0ca1"></path><path d="M714 600L747 549.3L614 515.3Z" fill="#450cbb" stroke="#450cbb"></path><path d="M609 600L714 600L614 515.3Z" fill="#5f04f1" stroke="#5f04f1"></path><path d="M114 0L0 0L119 53.7Z" fill="#4b0bc8" stroke="#4b0bc8"></path><path d="M0 419.6L0 549.3L55 488.3Z" fill="#340c94" stroke="#340c94"></path><path d="M747 549.3L832 482.3L742 415.6Z" fill="#3f0cae" stroke="#3f0cae"></path><path d="M900 372.9L805 252.1L779 337.9Z" fill="#4b0bc8" stroke="#4b0bc8"></path><path d="M770 600L832 482.3L747 549.3Z" fill="#2f0c87" stroke="#2f0c87"></path><path d="M900 231.1L782 141.4L805 252.1Z" fill="#3a0ca1" stroke="#3a0ca1"></path><path d="M798 80.7L805 0L695 0Z" fill="#450cbb" stroke="#450cbb"></path><path d="M714 600L770 600L747 549.3Z" fill="#3a0ca1" stroke="#3a0ca1"></path><path d="M900 372.9L779 337.9L814 418.6Z" fill="#2f0c87" stroke="#2f0c87"></path><path d="M0 549.3L0 600L100 600Z" fill="#6600ff" stroke="#6600ff"></path><path d="M900 449.6L814 418.6L832 482.3Z" fill="#4b0bc8" stroke="#4b0bc8"></path><path d="M900 449.6L900 372.9L814 418.6Z" fill="#5807e3" stroke="#5807e3"></path><path d="M900 231.1L900 133.4L782 141.4Z" fill="#5209d6" stroke="#5209d6"></path><path d="M900 539.3L900 449.6L832 482.3Z" fill="#340c94" stroke="#340c94"></path><path d="M900 133.4L900 80.7L798 80.7Z" fill="#340c94" stroke="#340c94"></path><path d="M900 80.7L900 0L805 0Z" fill="#5f04f1" stroke="#5f04f1"></path><path d="M770 600L900 539.3L832 482.3Z" fill="#5f04f1" stroke="#5f04f1"></path><path d="M770 600L900 600L900 539.3Z" fill="#3a0ca1" stroke="#3a0ca1"></path></g></svg>