<svg id="visual" viewBox="0 0 900 600" width="900" height="600" xmlns="http://www.w3.org/2000/svg" xmlns:xlink="http://www.w3.org/1999/xlink" version="1.1"><path d="M774 600L737 580C700 560 626 520 630 480C634 440 716 400 693.7 360C671.3 320 544.7 280 523 240C501.3 200 584.7 160 580.5 120C576.3 80 484.7 40 438.8 20L393 0L900 0L900 20C900 40 900 80 900 120C900 160 900 200 900 240C900 280 900 320 900 360C900 400 900 440 900 480C900 520 900 560 900 580L900 600Z" fill="#001122" stroke-linecap="round" stroke-linejoin="miter"></path></svg>