<svg id="visual" viewBox="0 0 900 600" width="900" height="600" xmlns="http://www.w3.org/2000/svg" xmlns:xlink="http://www.w3.org/1999/xlink" version="1.1"><path d="M186 0L225.7 20C265.3 40 344.7 80 339 120C333.3 160 242.7 200 218.2 240C193.7 280 235.3 320 275 360C314.7 400 352.3 440 370 480C387.7 520 385.3 560 384.2 580L383 600L0 600L0 580C0 560 0 520 0 480C0 440 0 400 0 360C0 320 0 280 0 240C0 200 0 160 0 120C0 80 0 40 0 20L0 0Z" fill="#6600FF" stroke-linecap="round" stroke-linejoin="miter"></path></svg>