<svg id="visual" viewBox="0 0 900 600" width="900" height="600" xmlns="http://www.w3.org/2000/svg" xmlns:xlink="http://www.w3.org/1999/xlink" version="1.1"><path d="M716 600L676.3 580C636.7 560 557.3 520 563 480C568.7 440 659.3 400 683.8 360C708.3 320 666.7 280 627 240C587.3 200 549.7 160 532 120C514.3 80 516.7 40 517.8 20L519 0L900 0L900 20C900 40 900 80 900 120C900 160 900 200 900 240C900 280 900 320 900 360C900 400 900 440 900 480C900 520 900 560 900 580L900 600Z" fill="#6600FF" stroke-linecap="round" stroke-linejoin="miter"></path></svg>