<svg id="visual" viewBox="0 0 900 600" width="900" height="600" xmlns="http://www.w3.org/2000/svg" xmlns:xlink="http://www.w3.org/1999/xlink" version="1.1"><path d="M146 0L209.8 20C273.7 40 401.3 80 406.7 120C412 160 295 200 286.8 240C278.7 280 379.3 320 381.7 360C384 400 288 440 296.3 480C304.7 520 417.3 560 473.7 580L530 600L0 600L0 580C0 560 0 520 0 480C0 440 0 400 0 360C0 320 0 280 0 240C0 200 0 160 0 120C0 80 0 40 0 20L0 0Z" fill="#001122" stroke-linecap="round" stroke-linejoin="miter"></path></svg>